<svg width="468" height="401" viewBox="0 0 468 401" fill="none" xmlns="http://www.w3.org/2000/svg">
<path d="M402.608 86.0356C403.133 80.5487 405.031 79.0814 407.184 79.289C409.337 79.4967 410.921 81.292 410.397 86.7815C409.441 96.7797 405.083 101.239 405.083 101.239C405.083 101.239 401.638 96.1785 402.608 86.0356Z" fill="#B2C9C6"/>
<path d="M224.04 314.985C224.04 314.985 212.758 304.995 216.64 299.306C220.522 293.617 227.07 311.528 227.07 311.528C227.07 311.528 223.674 290.349 230.709 289.98C237.743 289.611 230.709 311.528 230.709 311.528C230.709 311.528 233.318 306.419 235.864 306.102C238.41 305.785 237.683 310.435 233.132 314.985H224.04Z" fill="#BED5DC"/>
<path d="M224.843 315.233C222.674 313.248 220.698 311.062 218.942 308.703C215.339 303.752 214.481 299.819 216.391 297.021C217.104 295.975 217.962 295.497 218.937 295.59C220.912 295.781 223.136 298.377 225.734 303.514C226.513 305.055 227.201 306.593 227.742 307.869C227.122 302.312 226.401 291.256 229.927 287.548C230.639 286.773 231.628 286.311 232.678 286.261C233.146 286.218 233.617 286.281 234.057 286.446C234.496 286.612 234.893 286.874 235.216 287.215C238.396 290.589 235.539 302.609 233.968 308.236C235.137 306.596 236.795 304.76 238.489 304.552C239.287 304.451 239.926 304.708 240.287 305.274C241.325 306.913 239.918 311.061 235.768 315.214L235.14 314.747C239.221 310.665 240.331 306.823 239.56 305.618C239.369 305.315 239.066 305.2 238.609 305.257C236.424 305.53 233.881 309.629 233.083 311.203L232.304 310.968C233.345 307.623 234.211 304.225 234.9 300.79C236.265 293.868 236.143 289.332 234.574 287.674C234.341 287.425 234.053 287.233 233.733 287.114C233.413 286.994 233.07 286.95 232.73 286.985C232.32 287.005 231.918 287.106 231.547 287.282C231.176 287.458 230.844 287.707 230.569 288.012C226.111 292.693 228.96 310.837 228.988 311.02L228.182 311.176C226.709 307.151 222.172 296.628 218.841 296.303C218.219 296.245 217.645 296.598 217.104 297.396C212.913 303.541 225.3 314.64 225.436 314.75L224.843 315.233Z" fill="#42428E"/>
<path d="M190.413 326.683C203.633 333.694 289.267 329.314 320.93 327.423C327.555 327.027 332.734 321.475 332.759 314.739C332.871 284.955 332.958 207.565 332.991 175.962C332.991 168.283 326.981 162.007 319.411 161.818C290.868 161.116 225.458 159.711 202.759 159.334C200.619 159.314 198.557 160.139 197.023 161.631C195.488 163.122 194.604 165.16 194.563 167.3C193.651 200.721 178.232 320.22 190.413 326.683Z" fill="#8CBFD9"/>
<path d="M252.49 176.68C251.865 174.024 249.313 171.734 246.622 171.734C243.931 171.734 240.989 172.508 240.989 177.453C240.989 180.186 243.931 181.626 246.622 181.626C249.313 181.626 253.362 180.38 252.49 176.68Z" fill="#BDD1F9"/>
<path d="M271.228 176.68C270.603 174.024 268.051 171.734 265.36 171.734C262.669 171.734 259.727 172.508 259.727 177.453C259.727 180.186 262.669 181.626 265.36 181.626C268.051 181.626 272.1 180.38 271.228 176.68Z" fill="#BDD1F9"/>
<path d="M289.532 176.68C288.906 174.024 286.355 171.734 283.664 171.734C280.973 171.734 278.031 172.508 278.031 177.453C278.031 180.186 280.973 181.626 283.664 181.626C286.355 181.626 290.404 180.38 289.532 176.68Z" fill="#BDD1F9"/>
<path d="M306.382 176.68C305.757 174.024 303.205 171.734 300.514 171.734C297.823 171.734 294.881 172.508 294.881 177.453C294.881 180.186 297.823 181.626 300.514 181.626C303.205 181.626 307.254 180.38 306.382 176.68Z" fill="#BDD1F9"/>
<path d="M227.581 167.704L208.225 168.464C207.374 168.499 206.566 168.851 205.96 169.45C205.354 170.049 204.993 170.853 204.947 171.704L204.327 181.995C204.293 182.483 204.365 182.974 204.537 183.432C204.708 183.891 204.976 184.307 205.322 184.654C205.668 185 206.084 185.268 206.543 185.44C207.001 185.612 207.491 185.684 207.979 185.651L227.958 184.126C228.82 184.054 229.623 183.659 230.206 183.02C230.79 182.381 231.111 181.546 231.105 180.681V171.155C231.108 170.695 231.019 170.238 230.842 169.813C230.666 169.388 230.405 169.003 230.076 168.681C229.747 168.359 229.356 168.106 228.928 167.938C228.499 167.77 228.041 167.691 227.581 167.704Z" fill="#16679A"/>
<path d="M316.952 252.22C316.952 222.709 293.223 195.682 264.308 198.775C228.452 202.601 211.662 222.703 211.662 252.22C211.662 281.736 235.233 305.662 264.308 305.662C293.384 305.662 316.952 281.731 316.952 252.22Z" fill="#16679A"/>
<path d="M264.308 309.49C233.198 309.49 207.886 292.548 207.886 252.214C207.886 220.629 219.543 192.285 264.308 194.936C302.364 197.19 319.679 220.649 320.73 252.214C322.118 293.926 295.411 309.49 264.308 309.49ZM264.308 202.606C232.859 199.936 217.724 229.783 217.724 257.138C217.724 284.493 237.629 305.662 264.308 301.823C295.957 297.267 309.53 276.55 309.53 249.195C309.53 221.84 291.253 202.606 264.308 202.606Z" fill="#BDD1F9"/>
<path d="M303.123 235.609H313.174V270.809H305.459C302.938 270.809 300.521 269.807 298.739 268.024C296.956 266.242 295.955 263.824 295.955 261.302V242.776C295.955 241.835 296.14 240.903 296.501 240.033C296.861 239.163 297.389 238.373 298.055 237.707C298.72 237.042 299.511 236.514 300.38 236.154C301.25 235.794 302.182 235.609 303.123 235.609Z" fill="#BDD1F9"/>
<path d="M305.842 182.591C305.323 182.693 304.865 182.996 304.568 183.434C304.271 183.872 304.158 184.409 304.254 184.93L307.314 201.781C307.359 202.038 307.455 202.284 307.595 202.504C307.735 202.724 307.917 202.915 308.131 203.065C308.345 203.214 308.587 203.32 308.841 203.377C309.096 203.433 309.36 203.439 309.617 203.393C310.136 203.29 310.593 202.987 310.89 202.549C311.187 202.111 311.3 201.574 311.204 201.054L308.145 184.203C308.099 183.946 308.004 183.7 307.864 183.48C307.723 183.259 307.541 183.069 307.327 182.919C307.113 182.769 306.872 182.663 306.617 182.607C306.362 182.551 306.099 182.545 305.842 182.591Z" fill="#F7B686"/>
<path d="M310.819 181.659C310.3 181.762 309.843 182.065 309.546 182.503C309.249 182.941 309.136 183.477 309.232 183.998L312.655 202.852C312.7 203.109 312.795 203.355 312.936 203.575C313.076 203.795 313.258 203.986 313.472 204.136C313.686 204.285 313.927 204.391 314.182 204.448C314.437 204.504 314.701 204.51 314.958 204.464C315.477 204.361 315.935 204.058 316.232 203.621C316.529 203.183 316.641 202.645 316.545 202.125L313.122 183.271C313.077 183.014 312.981 182.768 312.841 182.548C312.701 182.327 312.519 182.137 312.305 181.987C312.091 181.837 311.849 181.731 311.595 181.675C311.34 181.619 311.076 181.613 310.819 181.659Z" fill="#F7B686"/>
<path d="M310.376 171.611L309.915 172.158C309.5 172.646 309.292 173.277 309.335 173.917C309.378 174.556 309.67 175.154 310.147 175.582L319.81 184.121C320.045 184.329 320.32 184.488 320.618 184.589C320.916 184.69 321.231 184.731 321.544 184.709C321.858 184.687 322.164 184.603 322.445 184.462C322.726 184.32 322.976 184.125 323.181 183.886L323.643 183.339C324.058 182.851 324.266 182.22 324.222 181.58C324.179 180.941 323.888 180.343 323.41 179.915L313.75 171.376C313.515 171.168 313.24 171.008 312.942 170.907C312.643 170.806 312.328 170.765 312.014 170.786C311.7 170.808 311.394 170.893 311.112 171.034C310.831 171.176 310.581 171.372 310.376 171.611Z" fill="#F7B686"/>
<path d="M315.796 180.727C315.278 180.831 314.822 181.134 314.525 181.572C314.229 182.01 314.116 182.546 314.212 183.066L316.944 198.174C316.989 198.431 317.084 198.677 317.224 198.897C317.364 199.118 317.547 199.308 317.761 199.458C317.975 199.607 318.216 199.713 318.471 199.769C318.726 199.825 318.99 199.83 319.247 199.783C319.765 199.681 320.222 199.378 320.519 198.941C320.815 198.503 320.928 197.967 320.831 197.447L318.099 182.339C318.054 182.082 317.959 181.836 317.819 181.616C317.678 181.396 317.496 181.205 317.282 181.056C317.068 180.906 316.827 180.8 316.572 180.743C316.317 180.687 316.054 180.681 315.796 180.727Z" fill="#F7B686"/>
<path d="M300.719 173.625C300.719 173.625 296.859 184.408 301.104 191.324C302.574 193.72 317.154 190.569 317.99 187.523C318.826 184.476 315.993 174.459 315.993 174.459L300.719 173.625Z" fill="#F7B686"/>
<path d="M300.894 183.501C300.376 183.603 299.92 183.906 299.624 184.342C299.328 184.779 299.216 185.315 299.312 185.834L302.044 200.912C302.089 201.168 302.185 201.414 302.325 201.633C302.465 201.853 302.646 202.043 302.86 202.192C303.073 202.341 303.314 202.447 303.568 202.503C303.822 202.559 304.085 202.564 304.342 202.519C304.859 202.416 305.316 202.114 305.612 201.677C305.908 201.24 306.02 200.704 305.923 200.185L303.192 185.107C303.146 184.851 303.051 184.606 302.911 184.386C302.771 184.167 302.589 183.977 302.376 183.827C302.162 183.678 301.922 183.573 301.667 183.516C301.413 183.46 301.15 183.455 300.894 183.501Z" fill="#F7B686"/>
<path d="M318.987 175.902C320.982 153.602 325.544 121.725 336.034 96.4764C338.46 90.6262 339.471 88.4293 341.367 85.2377C342.889 82.6665 340.162 77.0184 335.857 74.3242C331.819 71.7966 325.53 72.2092 324.536 73.4607C322.845 75.5893 321.039 79.6662 318.231 86.1422C308.47 108.639 302.621 137.699 300.252 175.164L318.987 175.902Z" fill="#F7B686"/>
<path d="M346.145 321.267C346.145 321.267 345.987 327.735 341.676 329.557C337.365 331.38 324.877 333.027 329.543 337.186C332.221 339.572 344.842 338.031 348.394 338.031C351.945 338.031 355.303 339.605 357.955 337.186C360.867 334.522 357.955 321.267 357.955 321.267C357.955 321.267 354.882 322.906 352.117 322.822C348.137 322.718 346.145 321.267 346.145 321.267Z" fill="#16679A"/>
<path d="M395.644 321.267C395.644 321.267 395.486 327.732 391.175 329.557C386.864 331.383 374.377 333.027 379.043 337.184C381.72 339.569 394.341 338.028 397.893 338.028C401.444 338.028 404.802 339.605 407.454 337.184C410.367 334.519 407.454 321.267 407.454 321.267C407.454 321.267 404.381 322.906 401.616 322.819C397.633 322.718 395.644 321.267 395.644 321.267Z" fill="#16679A"/>
<path d="M314.111 144.013C314.111 144.013 313.313 171.081 321.823 223.007C327.967 260.491 335.209 298.265 338.777 316.376C340.05 322.852 345.419 327.579 351.778 327.852L355.196 327.992C362.072 328.265 367.656 322.275 367.154 315.149L358.518 192.611L356.39 152.285L314.111 144.013Z" fill="#6A7985"/>
<path d="M391.956 167.821C391.566 171.1 373.216 170.715 350.749 167.821C328.281 164.928 310.794 159.996 311.185 156.7C311.576 153.405 329.702 153.006 352.164 155.88C374.625 158.755 392.35 164.526 391.956 167.821Z" fill="#16679A"/>
<path d="M339.903 163.332L387.869 319.75C389.877 326.308 395.685 330.784 402.299 330.899L405.182 330.948C411.989 331.068 417.202 324.677 415.951 317.726L389.724 170.751C389.548 169.905 389.147 169.123 388.565 168.486C387.982 167.848 387.239 167.379 386.413 167.127C377.404 164.507 339.02 156.856 339.903 163.332Z" fill="#6A7985"/>
<path d="M384.455 77.7641C384.455 77.7641 378.073 59.5357 355.338 60.3664C332.603 61.1971 315.439 91.5168 311.185 156.706C311.185 156.706 348.413 148.418 392.022 167.75C392.022 167.75 394.44 104.332 384.455 77.7641Z" fill="#8CBFD9"/>
<path d="M403.974 70.3291L384.304 87.1311C384.304 87.1311 342.905 91.3364 331.915 89.3171C320.924 87.2978 319.214 79.0894 319.214 79.0894C319.214 79.0894 329.669 64.5307 349.563 60.9156C351.434 60.5713 353.316 60.5167 355.327 60.3691C358.701 60.1259 360.968 60.4675 364.296 60.4402C395.235 60.1833 403.974 70.3291 403.974 70.3291Z" fill="#8CBFD9"/>
<path d="M361.337 233.243L351.022 201.409C348.771 194.337 343.987 188.345 337.589 184.585L337.996 183.883C344.569 187.742 349.485 193.894 351.797 201.158L362.113 232.991L361.337 233.243Z" fill="#020202"/>
<path d="M339.747 56.3006C339.624 56.2705 336.709 55.5491 335.827 53.4315C335.357 52.3029 335.554 50.9968 336.439 49.5513C336.827 48.9119 337.185 48.3327 337.512 47.8026C339.791 44.1137 340.558 42.8841 339.971 39.9876L340.244 39.933C340.862 42.9223 340.018 44.2886 337.761 47.9419C337.433 48.472 337.075 49.0486 336.687 49.688C335.868 51.0542 335.657 52.2838 336.095 53.3276C336.914 55.3196 339.802 56.0328 339.832 56.041L339.747 56.3006Z" fill="#E28569"/>
<path d="M340.091 39.9658C340.091 39.9658 341.099 44.5947 338.078 49.4394C335.056 54.2841 338.351 57.8254 342.449 55.9618C346.547 54.0982 348.101 59.3938 353.333 56.4673C358.564 53.5408 340.091 39.9658 340.091 39.9658Z" fill="#E28569"/>
<path d="M364.271 60.4321C363.155 60.3134 362.091 59.8977 361.19 59.2283C360.288 58.5589 359.583 57.6602 359.146 56.6257L356.332 49.9858L355.513 48.0566L350.705 36.7223L351.524 48.472L352.027 55.5218L352.169 57.5329C352.227 58.3191 351.992 59.0989 351.511 59.7231C351.03 60.3472 350.335 60.7719 349.56 60.9157H349.533C348.678 62.3257 347.495 65.1975 351.027 66.337C355.174 67.6786 361.884 64.3614 364.293 60.4348L364.271 60.4321Z" fill="#F7B686"/>
<path d="M356.332 49.7891C356.332 49.8547 356.332 49.9203 356.332 49.9858C356.059 53.7703 352.065 55.541 352.065 55.541L352.043 55.5191L351.541 48.4693C352.762 48.0157 354.499 47.5485 355.516 48.0567C356.043 48.3218 356.379 48.8546 356.332 49.7891Z" fill="#16679A"/>
<path d="M350.177 52.2156C356.182 52.2156 361.05 46.1195 361.05 38.5996C361.05 31.0797 356.182 24.9836 350.177 24.9836C344.172 24.9836 339.304 31.0797 339.304 38.5996C339.304 46.1195 344.172 52.2156 350.177 52.2156Z" fill="#F7B686"/>
<path d="M359.611 40.6545C358.379 41.8486 356.658 41.9688 355.764 40.9277C354.871 39.8866 355.147 38.0723 356.379 36.8782C357.611 35.6841 359.332 35.5611 360.225 36.6049C361.119 37.6487 360.829 39.4604 359.611 40.6545Z" fill="#F7B686"/>
<path d="M344.312 47.4119C346.839 47.4057 349.348 46.9876 351.74 46.1741C351.74 46.1741 352.049 49.8903 348.028 50.1389C345.697 50.2892 344.312 47.4119 344.312 47.4119Z" fill="#DB6B49"/>
<path d="M344.312 47.4119C344.312 47.4119 345.211 48.1688 347.317 48.1579C349.424 48.1469 351.748 46.1741 351.748 46.1741C351.748 46.1741 347.276 47.4228 344.312 47.4119Z" fill="white"/>
<path d="M349.128 38.7307C349.091 38.7208 349.057 38.7022 349.028 38.6766C348.999 38.651 348.976 38.619 348.962 38.5831C348.938 38.5214 348.939 38.4529 348.964 38.3918C348.99 38.3307 349.038 38.2818 349.098 38.2553C349.636 37.9985 350.244 37.9304 350.825 38.0617C351.406 38.1931 351.926 38.5163 352.3 38.9794C352.346 39.0272 352.372 39.0908 352.372 39.157C352.372 39.2231 352.346 39.2868 352.3 39.3346C352.251 39.3755 352.189 39.3979 352.125 39.3979C352.062 39.3979 352 39.3755 351.951 39.3346C351.156 38.8428 350.221 38.6303 349.292 38.7307C349.24 38.7504 349.181 38.7504 349.128 38.7307Z" fill="#060633"/>
<path d="M351.085 41.4905C351.104 42.089 350.77 42.5835 350.344 42.5999C349.918 42.6163 349.552 42.1381 349.525 41.5397C349.497 40.9413 349.839 40.4467 350.268 40.4303C350.697 40.4139 351.065 40.8921 351.085 41.4905Z" fill="#060633"/>
<path d="M340.302 40.0396C340.263 40.0452 340.224 40.0415 340.187 40.0286C340.151 40.0158 340.118 39.9942 340.091 39.9658C340.045 39.9184 340.019 39.8546 340.019 39.7882C340.019 39.7219 340.045 39.6581 340.091 39.6106C340.488 39.167 341.023 38.8697 341.609 38.7666C342.195 38.6636 342.799 38.7607 343.323 39.0423C343.383 39.0708 343.43 39.1215 343.453 39.1836C343.477 39.2458 343.475 39.3146 343.449 39.3756C343.418 39.4318 343.368 39.4752 343.308 39.4981C343.248 39.5211 343.182 39.5223 343.121 39.5013C342.198 39.3549 341.253 39.5203 340.436 39.9713C340.399 40.0074 340.352 40.0312 340.302 40.0396Z" fill="#060633"/>
<path d="M343.146 41.8348C343.386 42.3813 343.266 42.9688 342.872 43.1464C342.479 43.324 341.968 43.0261 341.728 42.4796C341.487 41.9331 341.605 41.3457 342.001 41.168C342.397 40.9904 342.902 41.2883 343.146 41.8348Z" fill="#060633"/>
<path d="M345.563 27.451C345.563 27.451 345.796 32.1754 351.609 32.9815C357.422 33.7876 361.43 36.2824 360.649 40.5341C359.868 44.7859 350.5 53.6009 357.371 57.0165C364.241 60.4321 362.791 54.0654 370.257 55.5409C377.723 57.0165 379.067 46.8981 373.929 41.026C368.79 35.1539 370.869 19.6142 351.595 20.3028C332.322 20.9914 339.384 36.6021 339.384 36.6021C339.384 36.6021 345.574 32.67 345.563 27.451Z" fill="#E28569"/>
<path d="M359.368 57.8909C357.922 57.298 357.032 56.4181 356.72 55.2759C355.857 52.109 359.501 47.3134 362.717 43.0836C363.561 41.9714 364.356 40.9222 365.066 39.9193C367.022 37.1486 367.178 33.856 365.471 31.3284C363.616 28.5795 360.127 27.421 356.363 28.3063C352.598 29.1916 349.959 28.3937 348.44 27.5603C347.488 27.0663 346.659 26.3651 346.014 25.5082L346.145 25.4208C346.175 25.4645 349.172 29.8392 356.327 28.1533C360.152 27.2543 363.703 28.4265 365.602 31.2382C367.345 33.8232 367.189 37.1841 365.195 40.0123C364.487 41.0151 363.687 42.0671 362.843 43.1792C359.649 47.379 356.032 52.1417 356.873 55.2349C357.177 56.3443 358.01 57.1641 359.428 57.7461L359.368 57.8909Z" fill="white"/>
<path d="M339.895 48.7508C338.255 48.1414 336.827 46.3107 336.07 43.8542C334.816 39.8511 335.696 35.3999 338.034 33.9298C338.448 33.6605 338.921 33.4951 339.413 33.4475C339.905 33.3999 340.401 33.4716 340.859 33.6565C342.498 34.2659 343.93 36.0994 344.7 38.5477C345.954 42.5453 345.072 47.002 342.733 48.4775C342.238 48.8001 341.66 48.9728 341.069 48.9748C340.668 48.971 340.27 48.8951 339.895 48.7508ZM344.225 38.6925C343.501 36.3781 342.176 34.6676 340.673 34.1074C340.283 33.9537 339.862 33.8948 339.444 33.9357C339.027 33.9765 338.625 34.1159 338.272 34.3424C336.108 35.7086 335.321 39.9057 336.512 43.7039C337.236 46.0101 338.561 47.7288 340.064 48.289C340.454 48.4403 340.874 48.498 341.291 48.4577C341.707 48.4174 342.109 48.2801 342.463 48.0567C344.626 46.6905 345.416 42.4825 344.225 38.6925Z" fill="#6A7985"/>
<g opacity="0.3">
<path d="M357.264 35.9381C358.136 39.8264 356.742 44.0016 354.15 45.2613C351.557 46.521 348.749 44.3951 347.866 40.5068C346.984 36.6185 348.388 32.4432 350.978 31.1835C353.568 29.9239 356.39 32.0497 357.264 35.9381Z" fill="white"/>
</g>
<g opacity="0.3">
<path d="M344.787 38.8618C345.664 42.7693 344.498 47.0046 342.187 48.3244C339.875 49.6442 337.294 47.5456 336.42 43.6382C335.545 39.7307 336.709 35.4981 339.02 34.1783C341.332 32.8585 343.913 34.9571 344.787 38.8618Z" fill="white"/>
</g>
<path d="M350.53 45.316C348.861 44.4963 347.582 42.6327 347.03 40.2117C346.08 36.0583 347.629 31.5743 350.486 30.2108C351.036 29.9409 351.642 29.8029 352.254 29.8076C352.867 29.8124 353.47 29.9598 354.016 30.2381C355.685 31.0579 356.958 32.9215 357.504 35.337C358.461 39.4958 356.912 43.9826 354.051 45.3379C353.512 45.6055 352.919 45.7458 352.317 45.7477C351.696 45.741 351.085 45.5934 350.53 45.316ZM350.688 30.6508C348.03 31.9214 346.591 36.1595 347.5 40.0997C348.014 42.3403 349.227 44.1301 350.743 44.8761C351.226 45.1135 351.756 45.2388 352.294 45.2426C352.831 45.2463 353.363 45.1285 353.849 44.8979C356.51 43.6273 357.947 39.3892 357.037 35.449C356.526 33.2138 355.316 31.4322 353.803 30.6781C353.322 30.4313 352.789 30.3003 352.249 30.2956C351.708 30.2908 351.174 30.4125 350.688 30.6508Z" fill="#6A7985"/>
<path d="M344.277 40.3183C344.382 40.3178 344.483 40.28 344.563 40.2117C344.613 40.1707 345.785 39.239 347.803 39.6297C347.921 39.6486 348.042 39.6218 348.141 39.5548C348.24 39.4878 348.31 39.3856 348.336 39.269C348.348 39.2105 348.349 39.15 348.337 39.0913C348.326 39.0326 348.303 38.9768 348.27 38.9271C348.236 38.8774 348.193 38.835 348.143 38.8022C348.093 38.7694 348.037 38.7469 347.978 38.7362C345.539 38.217 344.053 39.4521 343.987 39.5013C343.895 39.5806 343.838 39.6926 343.827 39.8135C343.817 39.9343 343.853 40.0546 343.93 40.1489C343.971 40.2018 344.023 40.2446 344.083 40.274C344.144 40.3034 344.21 40.3185 344.277 40.3183Z" fill="#6A7985"/>
<path d="M385.403 136.264C385.403 136.264 379.196 129.463 373.852 129.567C368.509 129.67 361.758 133.903 365.075 134.559C368.391 135.215 372.877 134.846 372.877 134.846C372.877 134.846 363.348 136.078 364.599 138.215C365.85 140.352 374.125 139.199 374.125 139.199C374.125 139.199 362.9 141.581 364.725 143.215C366.55 144.849 375.062 142.972 375.062 142.972C375.062 142.972 364.706 145.614 366.867 147.459C369.028 149.303 375.409 145.218 376.658 147.355C377.906 149.492 383.58 157.555 389.856 154.755L385.403 136.264Z" fill="#F7B686"/>
<path d="M376.699 135.327C375.513 134.316 372.97 135.029 372.942 135.037L372.833 134.655C372.945 134.622 375.609 133.876 376.956 135.024L376.699 135.327Z" fill="#DD8964"/>
<path d="M378.734 139.767C376.702 138.636 374.213 139.382 374.188 139.39L374.071 139.007C374.18 138.975 376.748 138.207 378.928 139.42L378.734 139.767Z" fill="#DD8964"/>
<path d="M379.349 143.483C378.179 142.303 375.158 143.155 375.128 143.163L375.016 142.781C375.15 142.743 378.294 141.855 379.63 143.204L379.349 143.483Z" fill="#DD8964"/>
<path d="M403.974 70.3292C405.613 72.7284 402.272 75.9691 395.404 81.0105C388.536 86.0519 385.545 87.8417 383.895 85.4426C382.245 83.0435 384.212 78.9612 391.036 73.8596C396.046 70.1188 402.327 67.9328 403.974 70.3292Z" fill="#16679A"/>
<path d="M385.902 152.577L379.84 139.013C379.438 138.126 379.372 137.123 379.657 136.192C379.941 135.261 380.555 134.465 381.384 133.955C389.984 128.957 394.953 122.992 396.163 116.194C397.844 106.759 392.612 95.9215 387.992 88.869C385.632 85.2648 385.378 81.7645 389.104 77.3543C390.65 75.5235 392.169 74.2502 397.111 72.1625C399.499 71.1515 401.879 70.8264 403.215 72.5697C405.304 75.3022 406.799 77.5374 409.7 82.9832C416.593 95.9133 419.171 108.822 417.158 120.312C414.686 134.414 405.864 145.839 390.913 154.317C389.077 155.361 386.796 154.577 385.902 152.577Z" fill="#F7B686"/>
<g opacity="0.5">
<path d="M409.788 119.273C409.563 119.273 409.34 119.243 409.124 119.183C407.179 118.656 406.201 115.97 406.897 113.071C407.313 111.335 408.263 109.879 409.454 109.177C409.775 108.972 410.135 108.835 410.51 108.773C410.886 108.712 411.271 108.729 411.64 108.822C413.585 109.352 414.563 112.038 413.866 114.937C413.451 116.672 412.5 118.126 411.309 118.831C410.851 119.112 410.325 119.265 409.788 119.273ZM410.976 109.71C410.613 109.719 410.259 109.826 409.952 110.018C408.99 110.59 408.2 111.816 407.845 113.297C407.299 115.601 407.995 117.866 409.381 118.243C409.624 118.299 409.875 118.306 410.121 118.262C410.366 118.219 410.601 118.126 410.809 117.989C411.771 117.418 412.561 116.191 412.916 114.71C413.462 112.404 412.765 110.141 411.38 109.764C411.247 109.727 411.109 109.709 410.971 109.71H410.976Z" fill="#E08B65"/>
</g>
<path d="M373.893 164.25C373.893 164.25 329.052 155.555 314.515 159.657L321.487 170.144L347.405 171.633L373.893 164.25Z" fill="#6A7985"/>
<path d="M104.391 309.725C104.391 309.725 98.5089 323.983 101.689 325.33C106.535 327.388 120.629 329.186 115.367 333.801C112.362 336.451 98.1209 334.741 94.1023 334.738C90.0837 334.735 86.3137 336.49 83.3304 333.801C80.0521 330.844 86.8819 308.186 86.8819 308.186C86.8819 308.186 91.0917 307.875 93.881 309.279C98.0635 311.359 104.391 309.725 104.391 309.725Z" fill="#16679A"/>
<path d="M82.9507 309.725C82.9507 309.725 77.0689 323.983 80.2489 325.33C85.0952 327.388 99.1891 329.186 93.9275 333.801C90.9224 336.451 76.681 334.741 72.6624 334.738C68.6437 334.735 64.8737 336.49 61.8905 333.801C58.6122 330.844 65.4419 308.186 65.4419 308.186C65.4419 308.186 69.6518 307.875 72.4411 309.279C76.6236 311.359 82.9507 309.725 82.9507 309.725Z" fill="#16679A"/>
<path d="M165.845 166.925C165.888 167.294 166.075 167.631 166.366 167.862C166.657 168.093 167.027 168.199 167.396 168.157L179.28 166.791C179.649 166.747 179.985 166.56 180.216 166.269C180.446 165.978 180.553 165.608 180.512 165.239C180.469 164.87 180.282 164.534 179.991 164.303C179.7 164.072 179.33 163.965 178.961 164.007L167.077 165.373C166.708 165.417 166.372 165.605 166.141 165.895C165.911 166.186 165.804 166.556 165.845 166.925Z" fill="#F7B686"/>
<path d="M165.435 163.362C165.479 163.731 165.666 164.067 165.957 164.298C166.248 164.528 166.618 164.635 166.987 164.594L180.277 163.067C180.646 163.023 180.982 162.835 181.213 162.545C181.444 162.254 181.55 161.884 181.509 161.515C181.466 161.146 181.278 160.81 180.987 160.579C180.697 160.348 180.327 160.242 179.958 160.282L166.667 161.81C166.299 161.854 165.962 162.042 165.731 162.332C165.501 162.623 165.394 162.993 165.435 163.362Z" fill="#F7B686"/>
<path d="M158.408 163.198L158.764 163.551C159.081 163.867 159.512 164.045 159.96 164.045C160.409 164.045 160.839 163.867 161.157 163.551L167.568 157.124C167.886 156.806 168.064 156.375 168.064 155.926C168.064 155.477 167.886 155.046 167.568 154.728L167.216 154.375C166.898 154.059 166.467 153.881 166.018 153.881C165.569 153.881 165.139 154.059 164.82 154.375L158.408 160.802C158.092 161.12 157.914 161.551 157.914 162C157.914 162.449 158.092 162.88 158.408 163.198Z" fill="#F7B686"/>
<path d="M165.028 159.799C165.071 160.168 165.259 160.504 165.55 160.735C165.84 160.965 166.211 161.071 166.58 161.029L177.234 159.807C177.603 159.763 177.939 159.576 178.17 159.285C178.4 158.994 178.507 158.624 178.466 158.255C178.424 157.886 178.236 157.549 177.945 157.318C177.654 157.087 177.284 156.98 176.914 157.023L166.26 158.244C165.891 158.287 165.554 158.475 165.323 158.767C165.092 159.058 164.986 159.429 165.028 159.799Z" fill="#F7B686"/>
<path d="M159.356 170.122C159.356 170.122 166.678 173.363 171.699 170.688C173.437 169.764 171.945 159.304 169.863 158.569C167.782 157.834 160.671 159.362 160.671 159.362L159.356 170.122Z" fill="#F7B686"/>
<path d="M166.255 170.467C166.298 170.835 166.485 171.171 166.775 171.401C167.066 171.632 167.435 171.738 167.804 171.696L178.433 170.475C178.802 170.431 179.138 170.244 179.369 169.954C179.599 169.664 179.706 169.294 179.665 168.925C179.621 168.558 179.433 168.223 179.143 167.992C178.853 167.762 178.484 167.656 178.116 167.696L167.484 168.917C167.116 168.961 166.781 169.148 166.55 169.439C166.32 169.729 166.214 170.098 166.255 170.467Z" fill="#F7B686"/>
<path d="M161.818 157.315C146.385 154.856 124.407 150.101 107.327 141.497C103.372 139.505 101.891 138.685 99.7573 137.196C98.0417 135.996 93.9739 137.658 91.8922 140.573C89.9389 143.306 89.3789 147.481 90.7475 148.536C92.261 149.702 94.9 151.304 99.2765 153.596C114.471 161.564 134.428 167.075 160.406 170.538L161.818 157.315Z" fill="#F7B686"/>
<path d="M124.014 160.408C123.686 160.407 123.36 160.368 123.041 160.294C122.296 160.131 121.617 159.75 121.088 159.201C120.855 158.976 120.682 158.696 120.584 158.387C120.486 158.079 120.467 157.751 120.528 157.433C120.801 156.249 122.386 155.605 124.052 155.998C125.719 156.392 126.841 157.67 126.563 158.854C126.339 159.804 125.276 160.408 124.014 160.408ZM123.055 156.468C122.063 156.468 121.255 156.892 121.096 157.561C121.058 157.786 121.077 158.018 121.15 158.234C121.224 158.451 121.35 158.646 121.517 158.802C121.968 159.262 122.545 159.58 123.175 159.714C124.541 160.034 125.792 159.586 125.997 158.714C126.202 157.843 125.268 156.878 123.918 156.558C123.635 156.495 123.345 156.464 123.055 156.465V156.468Z" fill="#E08B65"/>
<path d="M52.5583 214.785C52.6184 217.318 66.3325 218.337 83.2949 217.733C100.257 217.129 113.81 214.522 113.753 211.995C113.695 209.467 100.118 206.155 83.1555 206.748C66.1932 207.341 52.5009 212.235 52.5583 214.785Z" fill="#16679A"/>
<path d="M117.037 145.806C117.037 145.806 106.896 133.305 80.8771 132.048C78.2381 131.919 74.4353 133.105 72.2416 133.414C58.8143 135.283 50.2608 144.89 50.6596 157.258L52.5337 214.148C85.729 201.898 113.728 211.962 113.728 211.962C112.237 186.804 112.34 166.963 108.696 153.506C113.742 152.257 117.037 145.806 117.037 145.806Z" fill="#8CBFD9"/>
<path d="M72.2416 133.411C76.1045 136.805 83.1474 138.483 86.2863 136.944C90.1984 135.032 88.2642 132.81 87.6523 132.299C86.1771 131.075 85.6444 130.113 85.4039 128.474L85.3466 128.077L85.0515 126.058L84.5051 122.26L83.9588 118.418L82.1011 105.693L79.0632 119.257L78.5469 121.566L77.8175 124.823L76.7684 129.49C76.1838 132.053 72.2772 133.403 72.2416 133.411Z" fill="#F7B686"/>
<path d="M77.8065 124.82C77.8065 124.82 80.7624 128.017 85.3575 128.075L85.0625 126.055L84.5161 122.257L77.8065 124.82Z" fill="#56335B"/>
<path d="M82.9016 96.7852C82.9016 96.7852 91.3376 98.728 90.2285 105.144C89.1193 111.56 82.9016 96.7852 82.9016 96.7852Z" fill="#3C3C3C"/>
<path d="M78.2655 125.003C78.2655 125.003 65.9119 126.733 60.6229 117.557C58.2789 113.489 58.5084 110.956 59.8552 108.092C66.4664 94.0089 78.2655 125.003 78.2655 125.003Z" fill="#3C3C3C"/>
<path d="M89.7422 103.911C84.9422 97.643 76.5444 96.0117 70.985 100.272C65.4256 104.532 64.8081 113.062 69.619 119.331C74.4299 125.599 82.8141 127.23 88.3735 122.97C93.9329 118.711 94.5394 110.18 89.7422 103.911Z" fill="#F7B686"/>
<path d="M79.3255 109.942C79.3421 109.906 79.3507 109.867 79.3507 109.827C79.3507 109.788 79.3421 109.748 79.3255 109.713C79.2964 109.651 79.2442 109.603 79.1801 109.58C79.1161 109.557 79.0456 109.561 78.984 109.59C78.4113 109.819 77.9312 110.232 77.6191 110.765C77.307 111.297 77.1807 111.918 77.2601 112.53C77.2622 112.563 77.2709 112.596 77.2858 112.627C77.3007 112.657 77.3214 112.684 77.3468 112.707C77.3722 112.729 77.4017 112.746 77.4337 112.757C77.4657 112.768 77.4996 112.772 77.5333 112.77C77.6754 112.77 77.7546 112.639 77.7765 112.497C77.9715 111.548 78.4736 110.689 79.2052 110.054C79.257 110.032 79.2994 109.992 79.3255 109.942Z" fill="#060633"/>
<path d="M80.0084 113.355C80.4428 113.786 81.0493 113.882 81.3744 113.565C81.6995 113.248 81.5902 112.642 81.1531 112.199C80.716 111.756 80.1122 111.674 79.7871 111.989C79.462 112.303 79.5713 112.923 80.0084 113.355Z" fill="#060633"/>
<path d="M87.1824 104.529C87.2075 104.507 87.2262 104.48 87.2363 104.448C87.2465 104.417 87.2477 104.383 87.2398 104.351C87.2281 104.285 87.195 104.225 87.1457 104.179C87.0963 104.134 87.0334 104.106 86.9666 104.1C86.7234 104.054 86.4733 104.059 86.232 104.114C85.9907 104.169 85.7633 104.273 85.5641 104.42C85.3649 104.567 85.1982 104.753 85.0743 104.968C84.9503 105.182 84.8719 105.42 84.8439 105.666C84.8366 105.73 84.8495 105.794 84.8809 105.851C84.9122 105.907 84.9605 105.952 85.0188 105.98C85.0433 105.994 85.0707 106.002 85.0989 106.004C85.1271 106.006 85.1554 106.001 85.1816 105.991C85.2078 105.98 85.2314 105.964 85.2505 105.943C85.2696 105.922 85.2837 105.898 85.292 105.87C85.4781 105.542 85.7311 105.256 86.0346 105.032C86.3382 104.807 86.6854 104.649 87.054 104.567C87.0769 104.57 87.1001 104.568 87.1222 104.561C87.1443 104.555 87.1648 104.544 87.1824 104.529Z" fill="#060633"/>
<path d="M86.4666 107.983C86.7071 108.549 87.2316 108.868 87.6414 108.693C88.0512 108.518 88.1878 107.923 87.9528 107.357C87.7179 106.792 87.1906 106.475 86.7808 106.647C86.371 106.819 86.229 107.417 86.4666 107.983Z" fill="#060633"/>
<path d="M89.9717 112.461C87.9606 114.382 85.6548 115.968 83.1419 117.159C83.1419 117.159 85.688 120.306 89.0756 117.432C91.0371 115.762 89.9717 112.461 89.9717 112.461Z" fill="white"/>
<path d="M87.2206 97.0856C87.0103 98.8589 86.606 100.911 83.2512 102.072C79.8964 103.234 78.2819 102.16 78.2819 102.16C78.2882 103.056 78.0379 103.936 77.5606 104.694C77.0833 105.453 76.3989 106.059 75.5882 106.442C72.7279 107.841 71.7253 106.925 71.7253 106.925C71.7253 106.925 72.8181 109.658 70.72 111.631C68.6219 113.603 74.2715 114.363 70.4167 117.369C67.6411 119.538 64.2317 112.557 60.9917 109.431C56.566 105.16 59.7132 98.1676 63.1499 98.501C66.0239 98.7742 66.2206 95.4953 70.4413 92.5906C75.5035 89.104 76.1783 94.5908 78.0742 92.9322C82.3852 89.1422 87.8271 91.9567 87.2206 97.0856Z" fill="#3C3C3C"/>
<path d="M69.5616 119.459C71.0833 119.525 72.3673 118.476 72.4247 117.118C72.482 115.76 71.2991 114.598 69.7774 114.533C68.2558 114.467 66.9745 115.514 66.9144 116.874C66.8543 118.235 68.04 119.394 69.5616 119.459Z" fill="#F7B686"/>
<path d="M56.6179 111.77C56.5699 111.798 56.5146 111.81 56.4594 111.806C56.3889 111.798 56.324 111.763 56.2787 111.709C56.2333 111.654 56.2109 111.584 56.2163 111.513C56.4239 109.243 58.4674 108.508 58.5548 108.491C58.6219 108.47 58.6945 108.476 58.7576 108.507C58.8207 108.538 58.8694 108.592 58.8936 108.658C58.9155 108.725 58.9104 108.799 58.8793 108.862C58.8482 108.926 58.7936 108.975 58.7269 108.999C58.192 109.201 57.7237 109.548 57.3744 110C57.0251 110.453 56.8086 110.994 56.749 111.562C56.7449 111.605 56.7309 111.646 56.7081 111.682C56.6853 111.718 56.6544 111.748 56.6179 111.77Z" fill="#3C3C3C"/>
<path d="M58.8908 107.74C58.8389 107.768 58.7792 107.779 58.7205 107.771C58.6619 107.762 58.6076 107.735 58.5658 107.693C57.3965 106.499 57.3664 104.78 57.3637 104.707C57.3637 104.634 57.3925 104.565 57.4437 104.513C57.495 104.462 57.5644 104.433 57.6369 104.433C57.7094 104.433 57.7789 104.462 57.8301 104.513C57.8813 104.565 57.9101 104.634 57.9101 104.707C57.9101 104.723 57.9429 106.286 58.9564 107.324C59.0057 107.375 59.0332 107.443 59.0332 107.514C59.0332 107.585 59.0057 107.653 58.9564 107.704C58.9365 107.719 58.9144 107.731 58.8908 107.74Z" fill="#3C3C3C"/>
<path d="M77.6262 92.782C77.5847 92.8059 77.5376 92.8186 77.4896 92.8186C77.4417 92.8186 77.3946 92.8059 77.353 92.782C77.2931 92.7442 77.2502 92.6846 77.2334 92.6157C77.2166 92.5469 77.2271 92.4742 77.2629 92.4131C77.3503 92.2655 79.4784 88.8089 83.0818 88.1067C83.1512 88.0945 83.2226 88.1095 83.2811 88.1487C83.3397 88.1879 83.3808 88.2482 83.396 88.3171C83.4082 88.3865 83.3931 88.4579 83.3539 88.5165C83.3147 88.575 83.2544 88.6162 83.1856 88.6313C79.8172 89.2926 77.7409 92.6563 77.7218 92.689C77.6993 92.7284 77.6662 92.7606 77.6262 92.782Z" fill="#3C3C3C"/>
<path d="M65.2097 97.6568C65.1657 97.6817 65.1153 97.6931 65.0649 97.6895C64.9953 97.6854 64.93 97.6547 64.8823 97.604C64.8345 97.5532 64.808 97.486 64.8081 97.4163C64.881 96.513 65.1544 95.6374 65.6086 94.8532C65.6454 94.7931 65.7041 94.7496 65.7724 94.7318C65.8406 94.7139 65.9131 94.7232 65.9746 94.7576C66.0355 94.7945 66.0795 94.8537 66.0973 94.9226C66.1152 94.9915 66.1055 95.0647 66.0703 95.1265C65.6633 95.836 65.4162 96.6259 65.3463 97.4409C65.3428 97.4853 65.3286 97.5282 65.3048 97.5658C65.281 97.6034 65.2483 97.6346 65.2097 97.6568Z" fill="#3C3C3C"/>
<path d="M55.3913 215.001C55.3913 215.001 50.6569 233.161 66.0457 261.641C68.2531 265.74 60.9944 304.29 60.9944 316.359C60.9944 322.12 81.1449 321.278 83.0327 315.783C87.4501 299.079 102.134 273.156 95.7169 252.425C95.8671 252.425 93.8729 242.561 92.3321 234.532C91.4415 229.887 90.5263 225.827 90.712 224.753C91.5316 219.938 97.8396 213.257 96.6621 212.73C95.4 212.162 83.1556 206.727 55.3913 215.001Z" fill="#6A7985"/>
<path d="M84.3822 210.481C84.3822 210.481 69.3732 232.265 87.8026 261.641C87.8026 261.641 81.7678 302.189 82.2349 314.247C82.6174 324.136 103.997 320.393 104.191 317.526C112.693 300.246 119.523 278.211 119.523 269.762C119.523 261.314 116.572 245.635 114.766 237.664C111.647 223.876 111.414 214.039 110.901 213.072C109.879 211.145 89.6603 209.899 84.3822 210.481Z" fill="#6A7985"/>
<path d="M83.2403 315.843C83.3359 315.52 92.8867 283.326 95.9218 273.705C97.7904 267.781 97.7603 260.379 95.8261 251.701C95.766 251.427 95.7442 251.266 95.7196 251.154L95.3044 251.233C95.329 251.359 95.3535 251.531 95.4136 251.807C97.326 260.412 97.3669 267.74 95.5202 273.59C92.4823 283.209 82.9316 315.414 82.8333 315.736L83.2403 315.843Z" fill="#020202"/>
<path d="M95.2989 251.214C95.2716 251.064 92.567 235.972 90.9279 229.608C89.2532 223.122 92.3485 219.834 92.4796 219.698L92.7883 219.996C92.7582 220.026 89.7313 223.275 91.3404 229.502C92.9795 235.882 95.6814 250.987 95.7114 251.14L95.2989 251.214Z" fill="#020202"/>
<path d="M93.3565 156.908L96.3616 183.413C96.4961 184.684 97.0948 185.861 98.043 186.718C98.9912 187.576 100.222 188.053 101.5 188.058H182.761C184.089 188.052 185.364 187.537 186.324 186.619C187.284 185.701 187.855 184.45 187.921 183.124L189.541 155.588C189.589 154.874 189.489 154.157 189.248 153.483C189.007 152.809 188.629 152.192 188.139 151.67C187.649 151.148 187.057 150.733 186.4 150.45C185.742 150.167 185.034 150.022 184.318 150.025L98.4323 151.05C97.702 151.064 96.9829 151.232 96.3215 151.543C95.6601 151.853 95.0711 152.298 94.5927 152.851C94.1143 153.403 93.7571 154.049 93.5441 154.748C93.3312 155.447 93.2673 156.183 93.3565 156.908Z" fill="#E28569"/>
<path d="M103.582 144.803C122.047 132.685 142.435 138.57 142.435 138.57C156.368 137.3 162.788 139.417 165.017 139.994C183.594 139.609 187.263 147.883 187.263 147.883C151.09 150.959 103.582 144.803 103.582 144.803Z" fill="white"/>
<path d="M124.426 146.541L119.998 145.279L122.328 137.119C122.86 135.252 123.983 133.608 125.528 132.432C127.073 131.257 128.957 130.614 130.898 130.6H152.691C154.862 130.615 156.954 131.417 158.58 132.857C160.206 134.297 161.255 136.277 161.534 138.431L162.479 145.609L157.914 146.21L156.966 139.032C156.834 137.985 156.329 137.022 155.542 136.319C154.756 135.616 153.742 135.221 152.688 135.207H130.896C129.954 135.22 129.043 135.537 128.296 136.11C127.549 136.683 127.008 137.481 126.751 138.387L124.426 146.541Z" fill="#16679A"/>
<path d="M87.3709 149V152.211C87.3605 153.532 87.8707 154.804 88.7911 155.751C89.7114 156.699 90.9678 157.246 92.2883 157.274L188.59 158.515C189.256 158.518 189.915 158.389 190.531 158.135C191.146 157.882 191.705 157.509 192.174 157.037C192.644 156.566 193.016 156.006 193.268 155.39C193.52 154.774 193.647 154.114 193.642 153.449V150.049C193.652 148.726 193.14 147.451 192.216 146.503C191.292 145.555 190.031 145.01 188.708 144.986L92.4058 143.934C91.7418 143.933 91.0841 144.063 90.4707 144.318C89.8574 144.573 89.3006 144.946 88.8325 145.417C88.3643 145.888 87.9941 146.447 87.7433 147.062C87.4924 147.677 87.3658 148.336 87.3709 149Z" fill="#6A7985"/>
<path d="M131.816 185.528C131.81 185.898 131.95 186.256 132.206 186.523C132.462 186.79 132.812 186.946 133.182 186.957L145.14 187.203C145.51 187.21 145.868 187.07 146.136 186.814C146.404 186.558 146.56 186.207 146.571 185.837C146.577 185.467 146.437 185.109 146.182 184.841C145.926 184.573 145.575 184.416 145.205 184.405L133.248 184.159C132.877 184.153 132.519 184.294 132.251 184.55C131.983 184.806 131.827 185.157 131.816 185.528Z" fill="#F7B686"/>
<path d="M131.893 181.94C131.885 182.311 132.025 182.669 132.281 182.937C132.537 183.205 132.888 183.36 133.259 183.369L146.645 183.643C147.015 183.649 147.373 183.51 147.641 183.254C147.909 182.998 148.066 182.647 148.076 182.276C148.082 181.906 147.942 181.548 147.687 181.281C147.431 181.013 147.081 180.856 146.71 180.845L133.324 180.571C132.953 180.563 132.594 180.703 132.325 180.96C132.057 181.216 131.901 181.569 131.893 181.94Z" fill="#F7B686"/>
<path d="M124.951 180.834L125.254 181.23C125.527 181.586 125.93 181.819 126.375 181.879C126.82 181.939 127.27 181.821 127.628 181.549L134.843 176.044C135.2 175.771 135.434 175.367 135.493 174.922C135.553 174.477 135.434 174.027 135.163 173.669L134.862 173.273C134.589 172.917 134.186 172.683 133.741 172.623C133.296 172.563 132.846 172.682 132.488 172.953L125.276 178.459C124.919 178.732 124.685 179.134 124.624 179.579C124.563 180.024 124.68 180.475 124.951 180.834Z" fill="#F7B686"/>
<path d="M131.964 178.353C131.958 178.723 132.098 179.08 132.353 179.348C132.609 179.616 132.96 179.773 133.33 179.784L144.05 180.003C144.42 180.01 144.778 179.87 145.045 179.614C145.313 179.358 145.468 179.007 145.478 178.637C145.485 178.266 145.345 177.909 145.089 177.641C144.834 177.373 144.483 177.218 144.112 177.208L133.393 176.986C133.023 176.98 132.665 177.12 132.398 177.376C132.13 177.632 131.974 177.983 131.964 178.353Z" fill="#F7B686"/>
<path d="M124.956 187.821C124.956 187.821 131.786 192.018 137.113 190.042C138.96 189.359 138.886 178.795 136.922 177.787C134.958 176.779 127.705 177.336 127.705 177.336L124.956 187.821Z" fill="#F7B686"/>
<path d="M131.734 189.099C131.727 189.47 131.867 189.827 132.123 190.095C132.379 190.362 132.73 190.517 133.1 190.526L143.798 190.747C144.168 190.754 144.526 190.614 144.794 190.358C145.061 190.102 145.217 189.751 145.227 189.381C145.233 189.011 145.093 188.653 144.837 188.386C144.582 188.118 144.231 187.962 143.861 187.952L133.163 187.733C132.793 187.727 132.435 187.866 132.168 188.122C131.9 188.378 131.744 188.729 131.734 189.099Z" fill="#F7B686"/>
<path d="M129.12 175.461C114.16 170.942 93.0178 163.28 77.252 152.459C73.5994 149.951 72.2417 148.94 70.3266 147.178C68.7885 145.757 64.535 146.858 62.079 149.465C59.776 151.924 58.6587 155.973 59.8743 157.203C61.2157 158.569 63.6198 160.504 67.6439 163.365C81.6312 173.303 100.664 181.451 125.943 188.364L129.12 175.461Z" fill="#F7B686"/>
<path d="M91.772 173.478C91.2668 173.478 90.7659 173.385 90.294 173.205C89.5785 172.945 88.956 172.479 88.5046 171.866C88.2921 171.618 88.1505 171.317 88.0949 170.995C88.0393 170.673 88.0718 170.342 88.1888 170.037C88.3058 169.732 88.5031 169.465 88.7597 169.263C89.0163 169.061 89.3227 168.932 89.6466 168.89C90.3926 168.75 91.1628 168.82 91.8714 169.092C92.58 169.364 93.1991 169.828 93.6597 170.431C93.8724 170.679 94.0142 170.979 94.07 171.301C94.1258 171.622 94.0937 171.953 93.9769 172.257C93.8601 172.562 93.6631 172.83 93.4067 173.032C93.1503 173.233 92.8441 173.362 92.5205 173.404C92.2748 173.458 92.0235 173.483 91.772 173.478ZM90.406 169.379C90.1993 169.379 89.9931 169.402 89.7914 169.447C89.5604 169.468 89.3398 169.552 89.1546 169.692C88.9695 169.831 88.8272 170.02 88.7441 170.237C88.6609 170.453 88.6402 170.688 88.6844 170.916C88.7285 171.144 88.8356 171.354 88.9936 171.524C89.3771 172.042 89.9058 172.435 90.5126 172.653C91.1098 172.896 91.7655 172.958 92.3976 172.83C92.6283 172.809 92.8486 172.724 93.0334 172.585C93.2182 172.445 93.36 172.256 93.4429 172.04C93.5257 171.824 93.5462 171.588 93.5019 171.361C93.4577 171.133 93.3505 170.923 93.1926 170.753C92.8082 170.236 92.2798 169.844 91.6736 169.625C91.2661 169.465 90.8329 169.381 90.3951 169.376L90.406 169.379Z" fill="#E08B65"/>
<path d="M162.976 142.128C168.079 149.402 175.152 148.631 176.808 153.634C178.463 158.638 178.401 167.114 180.837 166.529C187.312 152.673 192.683 146.841 187.315 142.756C181.946 138.671 162.976 142.128 162.976 142.128Z" fill="white"/>
</svg>
