<svg width="200" height="200" viewBox="0 0 200 200" fill="none" xmlns="http://www.w3.org/2000/svg">
<path d="M197.058 85.4245C191.634 49.7469 169.412 5.91077 125.503 1.32067C125.503 1.32067 92.1619 -2.75861 59.3002 3.42147C39.7963 7.09067 22.6893 18.0047 11.8714 33.7032C1.05338 49.3944 -2.56693 68.5318 1.81893 86.777C4.66652 98.6264 6.59115 110.886 6.06885 123.066C5.14589 144.254 5.67535 164.039 26.1308 176.672C44.3897 187.953 67.3707 197.911 89.2929 199.652C104.189 200.839 120.903 198.918 135.262 195.018C208.441 175.133 202.481 121.102 197.058 85.4245Z" fill="#F4F7FA"/>
<path d="M114.687 196C113.082 196 111.784 194.667 111.784 193.019V184.074C111.784 182.426 113.082 181.093 114.687 181.093C116.292 181.093 117.589 182.426 117.589 184.074V193.019C117.589 194.667 116.292 196 114.687 196Z" fill="#D1D4D1"/>
<path d="M126.296 196C124.691 196 123.394 194.667 123.394 193.019V184.074C123.394 182.426 124.691 181.093 126.296 181.093C127.901 181.093 129.199 182.426 129.199 184.074V193.019C129.199 194.667 127.902 196 126.296 196Z" fill="#D1D4D1"/>
<path d="M158.224 106.556C156.619 106.556 155.322 107.888 155.322 109.537C155.322 111.186 156.619 112.518 158.224 112.518C167.829 112.518 175.64 120.542 175.64 130.407V169.167C175.64 175.744 170.432 181.093 164.029 181.093C157.627 181.093 152.419 175.744 152.419 169.167C152.419 159.301 144.608 151.278 135.004 151.278C125.399 151.278 117.589 159.301 117.589 169.167C117.589 170.815 118.886 172.148 120.491 172.148C122.096 172.148 123.393 170.815 123.393 169.167C123.393 162.59 128.601 157.241 135.004 157.241C141.407 157.241 146.614 162.59 146.614 169.167C146.614 179.032 154.425 187.056 164.029 187.056C173.634 187.056 181.445 179.032 181.445 169.167V130.407C181.445 117.256 171.028 106.556 158.224 106.556Z" fill="#D1D4D1"/>
<path d="M56.6354 97.611C73.0842 68.7891 117.589 61.8333 117.589 61.8333L123.394 97.611H56.6354ZM164.029 35C164.029 35 54.8213 37.2362 16 127.426H155.322C155.322 99.8472 181.445 100.593 181.445 100.593L164.029 35Z" fill="#8697CB"/>
<path d="M71.1485 63.7299V52.5793C71.1485 51.1035 69.9845 49.908 68.5479 49.908H56.3337C54.8971 49.908 53.7332 51.1035 53.7332 52.5793V76.4728C59.3641 71.6967 65.207 67.4687 71.1485 63.7299Z" fill="#D1D4D1"/>
<path d="M158.224 73.7593C158.224 80.3453 153.026 85.6853 146.614 85.6853C140.202 85.6853 135.004 80.3453 135.004 73.7593C135.004 67.1733 140.202 61.8333 146.614 61.8333C153.026 61.8333 158.224 67.173 158.224 73.7593Z" fill="#F3D55B"/>
<path d="M155.322 139.352H29.8915C24.934 139.352 20.4059 136.475 18.1886 131.922L16 127.426H155.322V139.352Z" fill="#556080"/>
<path d="M111.784 184.074H129.199V169.167H111.784V184.074Z" fill="#AFB0AF"/>
<path d="M120.491 115.5H62.4405C60.8355 115.5 59.5381 114.167 59.5381 112.519C59.5381 110.87 60.8355 109.537 62.4405 109.537H120.491C122.096 109.537 123.394 110.87 123.394 112.519C123.394 114.167 122.097 115.5 120.491 115.5Z" fill="#F3D55B"/>
<path d="M149.517 73.7593C149.517 75.405 148.216 76.7407 146.614 76.7407C145.012 76.7407 143.712 75.405 143.712 73.7593C143.712 72.1137 145.012 70.778 146.614 70.778C148.216 70.7777 149.517 72.1133 149.517 73.7593Z" fill="white"/>
</svg>
